Flexion_states
version=1
nRows=14
nColumns=41
inDegrees=yes

# SIMM Motion File Header:
name Flexion_states
datacolumns 41
datarows 14
otherdata 1
range 0.00000000 1.47698481
endheader
time	/jointset/ground_thorax/thorax_tilt/value	/jointset/ground_thorax/thorax_tilt/speed	/jointset/ground_thorax/thorax_list/value	/jointset/ground_thorax/thorax_list/speed	/jointset/ground_thorax/thorax_rotation/value	/jointset/ground_thorax/thorax_rotation/speed	/jointset/ground_thorax/thorax_tx/value	/jointset/ground_thorax/thorax_tx/speed	/jointset/ground_thorax/thorax_ty/value	/jointset/ground_thorax/thorax_ty/speed	/jointset/ground_thorax/thorax_tz/value	/jointset/ground_thorax/thorax_tz/speed	/jointset/sternoclavicular/sternoclavicular_r2/value	/jointset/sternoclavicular/sternoclavicular_r2/speed	/jointset/sternoclavicular/sternoclavicular_r3/value	/jointset/sternoclavicular/sternoclavicular_r3/speed	/jointset/unrotscap/unrotscap_r3/value	/jointset/unrotscap/unrotscap_r3/speed	/jointset/unrotscap/unrotscap_r2/value	/jointset/unrotscap/unrotscap_r2/speed	/jointset/acromioclavicular/acromioclavicular_r2/value	/jointset/acromioclavicular/acromioclavicular_r2/speed	/jointset/acromioclavicular/acromioclavicular_r3/value	/jointset/acromioclavicular/acromioclavicular_r3/speed	/jointset/acromioclavicular/acromioclavicular_r1/value	/jointset/acromioclavicular/acromioclavicular_r1/speed	/jointset/unrothum/unrothum_r1/value	/jointset/unrothum/unrothum_r1/speed	/jointset/unrothum/unrothum_r3/value	/jointset/unrothum/unrothum_r3/speed	/jointset/unrothum/unrothum_r2/value	/jointset/unrothum/unrothum_r2/speed	/jointset/shoulder0/elv_angle/value	/jointset/shoulder0/elv_angle/speed	/jointset/shoulder1/shoulder_elv/value	/jointset/shoulder1/shoulder_elv/speed	/jointset/shoulder1/shoulder1_r2/value	/jointset/shoulder1/shoulder1_r2/speed	/jointset/shoulder2/shoulder_rot/value	/jointset/shoulder2/shoulder_rot/speed
      0.00000000	      0.00000000	      0.00000000	      0.00000000	      0.00000000	      0.00000000	      0.00000000	      0.00000000	      0.00000000	      0.00000000	      0.00000000	      0.00000000	      0.00000000	      0.00000000	      0.00000000	     -0.00000000	      0.00000000	      0.00000000	      0.00000000	     -0.00000000	      0.00000000	      0.00000000	      0.00000000	     -0.00000000	      0.00000000	     -0.00000000	      0.00000000	      0.00000000	      0.00000000	      0.00000000	      0.00000000	     -0.00000000	      0.00000000	     90.00000000	      0.00000000	     -0.00000000	      0.00000000	    -90.00000000	      0.00000000	      0.00000000	      0.00000000
      0.01000000	      0.00000000	      0.00000000	      0.00000000	      0.00000000	      0.00000000	      0.00000000	     -0.00000000	     -0.00000000	      0.00000000	     -0.00000000	     -0.00000000	     -0.00000000	     -0.00065555	     -0.13108835	      0.00027766	      0.05552279	     -0.00027766	     -0.05552279	      0.00065555	      0.13108835	     -0.00013273	     -0.02654252	      0.00107269	      0.21450445	      0.00048218	      0.09642044	     -0.00048218	     -0.09642044	     -0.00107269	     -0.21450445	      0.00013273	      0.02654252	     90.00000000	     -0.00000000	      0.00270889	      0.54169253	    -90.00000000	      0.00000000	      0.00000000	      0.00000000
      0.06000000	     -0.00000000	     -0.00000000	     -0.00000000	     -0.00000000	     -0.00000000	     -0.00000000	     -0.00000000	     -0.00000000	      0.00000000	      0.00000000	     -0.00000000	     -0.00000000	     -0.02356236	     -0.78466609	      0.00997990	      0.33234726	     -0.00997990	     -0.33234726	      0.02356236	      0.78466609	     -0.00477086	     -0.15887770	      0.03855592	      1.28397654	      0.01733101	      0.57715160	     -0.01733101	     -0.57715160	     -0.03855592	     -1.28397654	      0.00477086	      0.15887770	     90.00000000	      0.00000000	      0.09736606	      3.24245257	    -90.00000000	      0.00000000	      0.00000000	      0.00000000
      0.31000000	      0.00000000	      0.00000000	     -0.00000000	     -0.00000000	     -0.00000000	     -0.00000000	      0.00000000	     -0.00000000	      0.00000000	      0.00000000	     -0.00000000	     -0.00000000	     -0.62397941	     -4.00553741	      0.26428802	      1.69655526	     -0.26428802	     -1.69655526	      0.62397941	      4.00553741	     -0.12634217	     -0.81103360	      1.02103932	      6.55440082	      0.45896047	      2.94622435	     -0.45896047	     -2.94622435	     -1.02103932	     -6.55440082	      0.12634217	      0.81103360	     90.00000000	      0.00000000	      2.57845175	     16.55196425	    -90.00000000	     -0.00000000	      0.00000000	      0.00000000
      0.66208510	      0.00000000	      0.00000000	     -0.00000000	     -0.00000000	     -0.00000000	     -0.00000000	      0.00000000	      0.00000000	      0.00000000	     -0.00000000	     -0.00000000	     -0.00000000	     -2.81358564	     -8.40517721	      1.19170115	      3.56003356	     -1.19170115	     -3.56003356	      2.81358564	      8.40517721	     -0.56968947	     -1.70186431	      4.60396849	     13.75368512	      2.06949871	      6.18232591	     -2.06949871	     -6.18232591	     -4.60396849	    -13.75368512	      0.56968947	      1.70186431	     90.00000000	      0.00000000	     11.62649706	     34.73246614	    -90.00000000	      0.00000000	      0.00000000	      0.00000000
      0.80133972	      0.00000000	     -0.00000000	     -0.00000000	     -0.00000000	     -0.00000000	     -0.00000000	      0.00000000	      0.00000000	      0.00000000	     -0.00000000	     -0.00000000	     -0.00000000	     -4.10230871	    -10.09918742	      1.73754298	      4.27753577	     -1.73754298	     -4.27753577	      4.10230871	     10.09918742	     -0.83062767	     -2.04486428	      6.71275107	     16.52565323	      3.01740330	      7.42833453	     -3.01740330	     -7.42833453	     -6.71275107	    -16.52565323	      0.83062767	      2.04486428	     90.00000000	      0.00000000	     16.95184942	     41.73257466	    -90.00000000	     -0.00000000	      0.00000000	      0.00000000
      0.89934932	      0.00000000	     -0.00000000	     -0.00000000	     -0.00000000	     -0.00000000	     -0.00000000	      0.00000000	      0.00000000	      0.00000000	     -0.00000000	     -0.00000000	     -0.00000000	     -5.14985829	    -11.27496417	      2.18123519	      4.77553891	     -2.18123519	     -4.77553891	      5.14985829	     11.27496417	     -1.04273352	     -2.28293332	      8.42689305	     18.44961779	      3.78791566	      8.29316282	     -3.78791566	     -8.29316282	     -8.42689305	    -18.44961779	      1.04273352	      2.28293332	     90.00000000	      0.00000000	     21.28060769	     46.59120226	    -90.00000000	     -0.00000000	      0.00000000	      0.00000000
      1.01215905	      0.00000000	      0.00000000	     -0.00000000	     -0.00000000	     -0.00000000	     -0.00000000	      0.00000000	      0.00000000	     -0.00000000	     -0.00000000	     -0.00000000	     -0.00000000	     -6.49730529	    -12.61061269	      2.75194970	      5.34125614	     -2.75194970	     -5.34125614	      6.49730529	     12.61061269	     -1.31556203	     -2.55337289	     10.63176766	     20.63518613	      4.77901392	      9.27558285	     -4.77901392	     -9.27558285	    -10.63176766	    -20.63518613	      1.31556203	      2.55337289	     90.00000000	      0.00000000	     26.84862325	     52.11046329	    -90.00000000	     -0.00000000	      0.00000000	      0.00000000
      1.12269319	      0.00000000	      0.00000000	     -0.00000000	     -0.00000000	     -0.00000000	     -0.00000000	      0.00000000	      0.00000000	     -0.00000000	     -0.00000000	     -0.00000000	     -0.00000000	     -7.96259803	    -13.89818697	      3.37257806	      5.88661141	     -3.37257806	     -5.88661141	      7.96259803	     13.89818697	     -1.61225172	     -2.81407849	     13.02947736	     22.74208892	      5.85679218	     10.22264246	     -5.85679218	    -10.22264246	    -13.02947736	    -22.74208892	      1.61225172	      2.81407849	     90.00000000	      0.00000000	     32.90360927	     57.43106857	    -90.00000000	     -0.00000000	      0.00000000	      0.00000000
      1.21846599	      0.00000000	      0.00000000	     -0.00000000	     -0.00000000	     -0.00000000	     -0.00000000	      0.00000000	      0.00000000	     -0.00000000	     -0.00000000	     -0.00000000	     -0.00000000	     -9.34600489	    -14.98342899	      3.95852345	      6.34626834	     -3.95852345	     -6.34626834	      9.34600489	     14.98342899	     -1.89236131	     -3.03381623	     15.29319433	     24.51790834	      6.87434027	     11.02087903	     -6.87434027	    -11.02087903	    -15.29319433	    -24.51790834	      1.89236131	      3.03381623	     90.00000000	      0.00000000	     38.62022067	     61.91558217	    -90.00000000	     -0.00000000	      0.00000000	      0.00000000
      1.29589881	      0.00000000	      0.00000000	     -0.00000000	     -0.00000000	     -0.00000000	     -0.00000000	      0.00000000	      0.00000000	     -0.00000000	     -0.00000000	     -0.00000000	     -0.00000000	    -10.53836731	    -15.79654367	      4.46355149	      6.69066507	     -4.46355149	     -6.69066507	     10.53836731	     15.79654367	     -2.13378858	     -3.19845414	     17.24429861	     25.84843631	      7.75136795	     11.61895565	     -7.75136795	    -11.61895565	    -17.24429861	    -25.84843631	      2.13378858	      3.19845414	     90.00000000	      0.00000000	     43.54738475	     65.27559203	    -90.00000000	     -0.00000000	      0.00000000	      0.00000000
      1.36100066	      0.00000000	      0.00000000	     -0.00000000	     -0.00000000	     -0.00000000	     -0.00000000	      0.00000000	      0.00000000	     -0.00000000	     -0.00000000	     -0.00000000	     -0.00000000	    -11.58550973	    -16.33661864	      4.90707125	      6.91941516	     -4.90707125	     -6.91941516	     11.58550973	     16.33661864	     -2.34581199	     -3.30780750	     18.95777435	     26.73217985	      8.52158083	     12.01620122	     -8.52158083	    -12.01620122	    -18.95777435	    -26.73217985	      2.34581199	      3.30780750	     90.00000000	      0.00000000	     47.87446054	     67.50732790	    -90.00000000	     -0.00000000	      0.00000000	      0.00000000
      1.41899273	      0.00000000	      0.00000000	     -0.00000000	     -0.00000000	     -0.00000000	     -0.00000000	      0.00000000	      0.00000000	     -0.00000000	     -0.00000000	     -0.00000000	     -0.00000000	    -12.54040526	    -16.52725258	      5.31151961	      7.00015863	     -5.31151961	     -7.00015863	     12.54040526	     16.52725258	     -2.53915743	     -3.34640669	     20.52030327	     27.04412083	      9.22394263	     12.15641970	     -9.22394263	    -12.15641970	    -20.52030327	    -27.04412083	      2.53915743	      3.34640669	     90.00000000	      0.00000000	     51.82034722	     68.29507893	    -90.00000000	     -0.00000000	      0.00000000	      0.00000000
      1.47698481	      0.00000000	      0.00000000	     -0.00000000	     -0.00000000	     -0.00000000	     -0.00000000	      0.00000000	      0.00000000	     -0.00000000	     -0.00000000	     -0.00000000	     -0.00000000	    -13.49105688	    -16.12277984	      5.71417045	      6.82884321	     -5.71417045	     -6.82884321	     13.49105688	     16.12277984	     -2.73164356	     -3.26450982	     22.07588772	     26.38226795	      9.92318287	     11.85891469	     -9.92318287	    -11.85891469	    -22.07588772	    -26.38226795	      2.73164356	      3.26450982	     90.00000000	      0.00000000	     55.74869688	     66.62368813	    -90.00000000	     -0.00000000	      0.00000000	      0.00000000
